<svg width="42" height="43" viewBox="0 0 42 43" fill="none" xmlns="http://www.w3.org/2000/svg">
<g id="ci:instagram" clip-path="url(#clip0_2813_2448)">
<rect id="Rectangle 21" y="0.259277" width="42" height="42" fill="#F9EFCF"/>
<g id="Group">
<path id="Vector" d="M21.0034 37.0808C16.6984 37.0808 16.1909 37.0581 14.5109 36.9846C13.2008 36.9415 11.9077 36.6752 10.6872 36.1971C9.64273 35.7906 8.69423 35.1714 7.9019 34.3788C7.10957 33.5861 6.49073 32.6374 6.08467 31.5928C5.62495 30.3679 5.377 29.0737 5.35142 27.7656C5.25342 26.0891 5.25342 25.5396 5.25342 21.2678C5.25342 16.9506 5.27617 16.4466 5.35142 14.7753C5.37756 13.469 5.6255 12.1766 6.08467 10.9533C6.49026 9.90741 7.10952 8.95758 7.90291 8.1645C8.69629 7.37142 9.64635 6.75252 10.6924 6.34732C11.915 5.88568 13.2078 5.63707 14.5144 5.61232C16.1857 5.51782 16.7352 5.51782 21.0034 5.51782C25.3434 5.51782 25.8422 5.54057 27.4959 5.61232C28.8049 5.63682 30.1034 5.88532 31.3284 6.34732C32.3742 6.75299 33.324 7.37205 34.1174 8.16508C34.9107 8.9581 35.5301 9.90768 35.9362 10.9533C36.4034 12.1958 36.6537 13.5083 36.6729 14.8331C36.7709 16.5096 36.7709 17.0573 36.7709 21.3273C36.7709 25.5973 36.7464 26.1573 36.6729 27.8146C36.6468 29.1239 36.3982 30.4193 35.9379 31.6453C35.5308 32.6906 34.9108 33.6399 34.1173 34.4328C33.3238 35.2257 32.374 35.845 31.3284 36.2513C30.1034 36.7098 28.8102 36.9583 27.5029 36.9846C25.8317 37.0808 25.2839 37.0808 21.0034 37.0808ZM20.9439 8.28807C16.6634 8.28807 16.2189 8.30907 14.5477 8.38432C13.5496 8.39737 12.5611 8.58146 11.6252 8.92857C10.9425 9.19023 10.3223 9.59201 9.8045 10.108C9.28666 10.6241 8.88271 11.2429 8.61867 11.9246C8.26867 12.8696 8.08492 13.8688 8.07442 14.8768C7.98167 16.5726 7.98167 17.0171 7.98167 21.2678C7.98167 25.4678 7.99742 25.9771 8.07442 27.6623C8.09017 28.6598 8.27392 29.6486 8.61867 30.5848C9.15417 31.9621 10.2462 33.0506 11.6269 33.5791C12.5616 33.9284 13.5499 34.1125 14.5477 34.1233C16.2417 34.2213 16.6879 34.2213 20.9439 34.2213C25.2367 34.2213 25.6812 34.2003 27.3384 34.1233C28.3366 34.1112 29.3253 33.9271 30.2609 33.5791C30.9399 33.3154 31.5566 32.9134 32.0718 32.3985C32.587 31.8836 32.9894 31.2671 33.2534 30.5883C33.6034 29.6433 33.7872 28.6423 33.7977 27.6343H33.8169C33.8922 25.9613 33.8922 25.5151 33.8922 21.2398C33.8922 16.9646 33.8729 16.5148 33.7977 14.8436C33.7818 13.8469 33.5978 12.86 33.2534 11.9246C32.99 11.2448 32.5878 10.6273 32.0726 10.1115C31.5574 9.59566 30.9404 9.19281 30.2609 8.92857C29.3247 8.57857 28.3359 8.39657 27.3384 8.38432C25.6462 8.28807 25.2034 8.28807 20.9439 8.28807ZM21.0034 29.3511C19.4032 29.3521 17.8386 28.8786 16.5075 27.9903C15.1764 27.102 14.1386 25.839 13.5254 24.3609C12.9122 22.8828 12.7512 21.256 13.0626 19.6864C13.374 18.1167 14.144 16.6747 15.275 15.5426C16.4061 14.4106 17.8475 13.6394 19.4168 13.3266C20.9862 13.0138 22.6131 13.1735 24.0917 13.7854C25.5704 14.3973 26.8343 15.434 27.7237 16.7643C28.6132 18.0946 29.0881 19.6588 29.0884 21.2591C29.0856 23.4031 28.2332 25.4587 26.7177 26.9754C25.2023 28.4922 23.1475 29.3464 21.0034 29.3511ZM21.0034 16.0056C19.9651 16.0056 18.95 16.3135 18.0867 16.8904C17.2233 17.4672 16.5504 18.2872 16.153 19.2465C15.7557 20.2058 15.6517 21.2614 15.8543 22.2798C16.0569 23.2982 16.5569 24.2337 17.2911 24.9679C18.0253 25.7021 18.9608 26.2021 19.9792 26.4047C20.9976 26.6073 22.0532 26.5033 23.0125 26.1059C23.9718 25.7086 24.7918 25.0357 25.3686 24.1723C25.9455 23.309 26.2534 22.2939 26.2534 21.2556C26.2502 19.8642 25.696 18.5307 24.7122 17.5468C23.7283 16.563 22.3948 16.0088 21.0034 16.0056ZM29.4034 14.7578C29.1557 14.7569 28.9105 14.7072 28.682 14.6115C28.4535 14.5159 28.246 14.3762 28.0715 14.2003C27.719 13.8452 27.5221 13.3647 27.5239 12.8643C27.5258 12.364 27.7263 11.8849 28.0814 11.5324C28.4365 11.1799 28.9171 10.983 29.4174 10.9848C29.9177 10.9867 30.3968 11.1872 30.7493 11.5423C31.1018 11.8974 31.2988 12.378 31.2969 12.8783C31.2951 13.3787 31.0945 13.8578 30.7394 14.2102C30.3843 14.5627 29.9037 14.7597 29.4034 14.7578Z" fill="#F38281"/>
</g>
</g>
<defs>
<clipPath id="clip0_2813_2448">
<rect width="42" height="42" fill="white" transform="translate(0 0.259277)"/>
</clipPath>
</defs>
</svg>
