<svg width="42" height="43" viewBox="0 0 42 43" fill="none" xmlns="http://www.w3.org/2000/svg">
<g id="ci:twitter" clip-path="url(#clip0_2813_2455)">
<rect id="Rectangle 19" y="0.259277" width="42" height="42" fill="#F9EFCF"/>
<g id="Group">
<path id="Vector" d="M34.9913 11.9633C36.56 11.0254 37.7338 9.54868 38.2935 7.80876C36.8194 8.68345 35.2066 9.29958 33.5248 9.63051C32.3905 8.43062 30.893 7.63712 29.2632 7.37231C27.6334 7.10751 25.9618 7.38611 24.506 8.16516C23.0502 8.94421 21.891 10.1805 21.2071 11.6834C20.5233 13.1863 20.3527 14.8724 20.7218 16.4818C17.7361 16.3319 14.8152 15.5558 12.1489 14.2039C9.48256 12.8521 7.13029 10.9546 5.24478 8.63476C4.28589 10.2887 3.99247 12.2456 4.42411 14.108C4.85575 15.9704 5.98009 17.5988 7.56878 18.6623C6.37652 18.6239 5.2107 18.3011 4.16853 17.7208V17.8153C4.16886 19.5495 4.76901 21.2302 5.86719 22.5724C6.96537 23.9145 8.49397 24.8356 10.1938 25.1793C9.08789 25.4801 7.92789 25.5244 6.80228 25.3088C7.28305 26.8003 8.21751 28.1046 9.47524 29.0395C10.733 29.9744 12.2512 30.4933 13.818 30.5238C11.1577 32.6117 7.87236 33.7441 4.49053 33.7385C3.89028 33.7385 3.29178 33.7035 2.69678 33.6353C6.131 35.842 10.1279 37.0133 14.21 37.0093C17.0216 37.0286 19.809 36.489 22.4102 35.4219C25.0115 34.3548 27.3748 32.7815 29.3628 30.7933C31.3508 28.8051 32.924 26.4417 33.9909 23.8403C35.0577 21.239 35.5971 18.4516 35.5775 15.64C35.5775 15.3145 35.5705 14.9908 35.5548 14.6688C37.0256 13.6058 38.295 12.289 39.3033 10.7803C37.933 11.3876 36.4796 11.7863 34.9913 11.9633Z" fill="#F38281"/>
</g>
</g>
<defs>
<clipPath id="clip0_2813_2455">
<rect width="42" height="42" fill="white" transform="translate(0 0.259277)"/>
</clipPath>
</defs>
</svg>
