<svg width="42" height="43" viewBox="0 0 42 43" fill="none" xmlns="http://www.w3.org/2000/svg">
<g id="jam:pinterest" clip-path="url(#clip0_2813_2452)">
<rect id="Rectangle 20" y="0.259277" width="42" height="42" fill="#F9EFCF"/>
<path id="Vector" d="M18.6725 26.679C17.787 31.4495 16.709 36.024 13.51 38.4127C12.5248 31.2027 14.9608 25.7865 16.0913 20.0377C14.1628 16.6952 16.324 9.96649 20.391 11.6237C25.396 13.6642 16.0563 24.0522 22.3265 25.3507C28.8733 26.7052 31.5473 13.6555 27.4873 9.40999C21.6213 3.28324 10.4125 9.27174 11.7915 18.0445C12.1275 20.19 14.2783 20.841 12.6508 23.802C8.89704 22.9427 7.77704 19.8942 7.92229 15.829C8.15329 9.17899 13.727 4.52049 19.3165 3.87649C26.3865 3.06099 33.0208 6.54874 33.936 13.3965C34.9685 21.1245 30.7458 29.4965 23.1875 28.8927C21.1383 28.73 20.2773 27.6852 18.6725 26.679Z" fill="#F38281"/>
</g>
<defs>
<clipPath id="clip0_2813_2452">
<rect width="42" height="42" fill="white" transform="translate(0 0.259277)"/>
</clipPath>
</defs>
</svg>
